#!OML:ASF E:\CV Data\Top Level 1\Subject 1\Session 1\player.ASF
:FULLY-SPECIFIED
:DEGREES
1165
root -0.925586 17.1386 5.17102 -3.35706 21.4415 -10.8083
lowerback 13.0602 3.42623 1.99711
upperback 0.829872 5.05718 2.87522
thorax -6.53081 2.46463 0.975621
lowerneck 1.91885 -17.6186 -20.1768
upperneck 2.48775 -25.9294 27.4125
head 6.96997 -12.7691 9.30582
rclavicle 1.28117e-013 2.14687e-014
rhumerus 373.865 341.278 673.315
rradius 37.1123
rwrist -21.4904
rhand -29.2054 4.26496
rfingers 7.12502
rthumb -2.5501 -25.6995
lclavicle 1.28117e-013 2.14687e-014
lhumerus -40.1109 14.5813 68.2339
lradius 45.6013
lwrist 2.77758
lhand -17.8018 7.90715
lfingers 7.12502
lthumb 8.4616 37.7176
rfemur -6.29104 -12.8841 20.7268
rtibia 51.8595
rfoot -10.7055 -12.138
rtoes -22.8638
lfemur -29.9795 -8.85208 -3.01742
ltibia 34.2544
lfoot -4.19491 -9.77163
ltoes -7.0793
1166
root -1.00557 17.1169 5.12345 -3.40236 20.6128 -10.6305
lowerback 12.9581 3.44737 2.02533
upperback 0.748145 5.0813 2.78493
thorax -6.54987 2.47339 0.864305
lowerneck 1.60388 -17.4728 -20.245
upperneck 3.10993 -25.7524 26.9924
head 7.10867 -12.6425 9.18789
rclavicle 9.74045e-015 1.39149e-014
rhumerus 374.747 341.182 672.344
rradius 38.7491
rwrist -23.3044
rhand -29.0289 4.27644
rfingers 7.12502
rthumb -2.37959 -25.69
lclavicle 9.74045e-015 1.39149e-014
lhumerus -39.8231 15.208 67.7184
lradius 45.1819
lwrist 2.49128
lhand -17.5682 8.30251
lfingers 7.12502
lthumb 8.68709 38.1038
rfemur -5.8094 -12.7718 21.2394
rtibia 51.2215
rfoot -12.7104 -13.6965
rtoes -22.9689
lfemur -29.8269 -8.62464 -2.7762
ltibia 34.278
lfoot -4.02731 -9.31866
ltoes -7.41734
1167
root -1.08687 17.0948 5.07343 -3.43859 19.7691 -10.4892
lowerback 12.866 3.46735 2.10068
upperback 0.67033 5.11188 2.70635
thorax -6.56732 2.48407 0.737557
lowerneck 1.22866 -17.3358 -20.3077
upperneck 3.7465 -25.5767 26.5663
head 7.26279 -12.5134 9.06124
rclavicle 4.81059e-014 -1.23246e-014
rhumerus 375.565 341.186 671.333
rradius 40.4807
rwrist -25.0577
rhand -28.7995 4.29793
rfingers 7.12502
rthumb -2.15804 -25.6709
lclavicle 4.81059e-014 -1.23246e-014
lhumerus -39.5315 15.8283 67.232
lradius 44.7729
lwrist 2.17265
lhand -17.3093 8.72031
lfingers 7.12502
lthumb 8.93685 38.511
rfemur -5.27002 -12.536 21.7683
rtibia 50.3685
rfoot -14.6045 -15.1611
rtoes -22.9421
lfemur -29.6992 -8.39227 -2.48237
ltibia 34.3037
lfoot -3.8426 -8.85613
ltoes -7.70746
1168
root -1.16893 17.0713 5.02064 -3.46534 18.9142 -10.3989
lowerback 12.7825 3.47813 2.23614
upperback 0.598174 5.14032 2.64536
thorax -6.57976 2.4922 0.596073
lowerneck 0.77626 -17.2068 -20.3597
upperneck 4.40793 -25.3988 26.1244
head 7.43558 -12.3787 8.92148
rclavicle 4.9398e-014 2.38542e-015
rhumerus 376.336 341.303 670.282
rradius 42.282
rwrist -26.6828
rhand -28.5381 4.33765
rfingers 7.12502
rthumb -1.90558 -25.6336
lclavicle 4.9398e-014 2.38542e-015
lhumerus -39.2443 16.4508 66.7768
lradius 44.3802
lwrist 1.85212
lhand -17.0475 9.13447
lfingers 7.12502
lthumb 9.18951 38.9142
rfemur -4.68804 -12.1783 22.3224
rtibia 49.2978
rfoot -16.4438 -16.4525
rtoes -22.6689
lfemur -29.6119 -8.16458 -2.12087
ltibia 34.3475
lfoot -3.64425 -8.37469
ltoes -7.95401
1169
root -1.2511 17.0463 4.96501 -3.48132 18.0526 -10.3683
lowerback 12.7045 3.48036 2.44204
upperback 0.531879 5.16887 2.60353
thorax -6.58452 2.49862 0.43557
lowerneck 0.258343 -17.0824 -20.3972
upperneck 5.07395 -25.213 25.6813
head 7.61964 -12.2372 8.77571
rclavicle 7.25564e-015 2.38542e-015
rhumerus 377.044 341.539 669.214
rradius 44.1338
rwrist -28.1236
rhand -28.2936 4.42817
rfingers 7.12502
rthumb -1.66945 -25.545
lclavicle 7.25564e-015 2.38542e-015
lhumerus -38.9469 17.0629 66.3686
lradius 43.9904
lwrist 1.55372
lhand -16.8112 9.51911
lfingers 7.12502
lthumb 9.41749 39.2887
rfemur -4.08632 -11.7123 22.9052
rtibia 48.0507
rfoot -18.1378 -17.5512
rtoes -22.1237
lfemur -29.5717 -7.95277 -1.68281
ltibia 34.4144
lfoot -3.43294 -7.86624
ltoes -8.13877
1170
root -1.33283 17.0207 4.9069 -3.48788 17.1882 -10.3958
lowerback 12.636 3.4723 2.71574
upperback 0.468418 5.19495 2.5798
thorax -6.58709 2.50197 0.256595
lowerneck -0.326412 -16.9609 -20.4133
upperneck 5.74584 -25.0164 25.234
head 7.81376 -12.0874 8.6229
rclavicle 3.45388e-014 -1.43125e-014
rhumerus 377.675 341.897 668.142
rradius 46.016
rwrist -29.3275
rhand -28.087 4.59625
rfingers 7.12502
rthumb -1.46999 -25.3784
lclavicle 3.45388e-014 -1.43125e-014
lhumerus -38.6459 17.6489 66.0119
lradius 43.5982
lwrist 1.2998
lhand -16.6391 9.86644
lfingers 7.12502
lthumb 9.58356 39.6285
rfemur -3.49725 -11.1372 23.5093
rtibia 46.6921
rfoot -19.5518 -18.4712
rtoes -21.478
lfemur -29.568 -7.76365 -1.17287
ltibia 34.4975
lfoot -3.20984 -7.32503
ltoes -8.24204
1171
root -1.41316 16.9958 4.84648 -3.48301 16.3087 -10.4761
lowerback 12.579 3.46259 3.06008
upperback 0.404211 5.23022 2.56798
thorax -6.59155 2.50761 0.0487804
lowerneck -0.932607 -16.8388 -20.396
upperneck 6.39161 -24.8069 24.7933
head 7.99971 -11.9326 8.46983
rclavicle 6.41081e-015 -2.38542e-015
rhumerus 378.201 342.375 667.085
rradius 47.9153
rwrist -30.27
rhand -27.9314 4.85254
rfingers 7.12502
rthumb -1.31963 -25.1231
lclavicle 6.41081e-015 -2.38542e-015
lhumerus -38.342 18.1787 65.7132
lradius 43.2005
lwrist 1.09722
lhand -16.5423 10.1536
lfingers 7.12502
lthumb 9.67699 39.9113
rfemur -2.95204 -10.4488 24.1254
rtibia 45.2956
rfoot -20.6844 -19.2291
rtoes -20.8213
lfemur -29.583 -7.6014 -0.597942
ltibia 34.5818
lfoot -2.96771 -6.73465
ltoes -8.2467
1172
root -1.49176 16.9723 4.78404 -3.46589 15.4158 -10.5887
lowerback 12.5363 3.45366 3.44829
upperback 0.344388 5.27397 2.56787
thorax -6.59603 2.51602 -0.173024
lowerneck -1.55169 -16.7115 -20.3563
upperneck 6.98986 -24.5786 24.3765
head 8.17213 -11.7706 8.32579
rclavicle -2.40032e-014 3.97569e-016
rhumerus 378.622 342.976 666.064
rradius 49.8157
rwrist -30.9631
rhand -27.8445 5.21751
rfingers 7.12502
rthumb -1.23571 -24.7587
lclavicle -2.40032e-014 3.97569e-016
lhumerus -38.0329 18.66 65.4869
lradius 42.7936
lwrist 0.926382
lhand -16.5407 10.392
lfingers 7.12502
lthumb 9.67848 40.1496
rfemur -2.46374 -9.66007 24.7317
rtibia 43.924
rfoot -21.6152 -19.829
rtoes -20.1522
lfemur -29.5956 -7.47424 0.0166288
ltibia 34.6467
lfoot -2.69741 -6.08976
ltoes -8.11127
1173
root -1.56809 16.9512 4.71982 -3.43335 14.5064 -10.7172
lowerback 12.5145 3.45246 3.87078
upperback 0.278115 5.33449 2.57046
thorax -6.61548 2.53091 -0.415155
lowerneck -2.13501 -16.5798 -20.2902
upperneck 7.52443 -24.3385 23.9828
head 8.31784 -11.6087 8.19234
rclavicle 3.05134e-014 -2.14687e-014
rhumerus 378.902 343.687 665.091
rradius 51.7123
rwrist -31.4075
rhand -27.7908 5.68348
rfingers 7.12502
rthumb -1.18383 -24.293
lclavicle 3.05134e-014 -2.14687e-014
lhumerus -37.7428 19.0479 65.3351
lradius 42.3957
lwrist 0.800032
lhand -16.6448 10.5845
lfingers 7.12502
lthumb 9.57811 40.3468
rfemur -2.04677 -8.80173 25.3088
rtibia 42.6252
rfoot -22.4086 -20.2583
rtoes -19.4453
lfemur -29.5886 -7.39338 0.652533
ltibia 34.6739
lfoot -2.38985 -5.37775
ltoes -7.78201
1174
root -1.64181 16.9334 4.65406 -3.38266 13.5794 -10.8404
lowerback 12.5149 3.4574 4.29926
upperback 0.209436 5.40579 2.57533
thorax -6.64858 2.55015 -0.661293
lowerneck -2.6953 -16.4444 -20.1949
upperneck 7.99883 -24.0849 23.5974
head 8.43676 -11.4449 8.063
rclavicle 2.08724e-014 -2.50469e-014
rhumerus 379.064 344.511 664.165
rradius 53.5901
rwrist -31.6328
rhand -27.7627 6.24456
rfingers 7.12502
rthumb -1.15676 -23.732
lclavicle 2.08724e-014 -2.50469e-014
lhumerus -37.4885 19.368 65.253
lradius 42.0202
lwrist 0.682947
lhand -16.8346 10.7605
lfingers 7.12502
lthumb 9.39491 40.5311
rfemur -1.71039 -7.92221 25.8313
rtibia 41.4281
rfoot -23.0966 -20.5232
rtoes -18.684
lfemur -29.5467 -7.36452 1.28377
ltibia 34.6494
lfoot -2.04284 -4.59145
ltoes -7.22622
1175
root -1.7129 16.9192 4.58721 -3.31278 12.6404 -10.9393
lowerback 12.5346 3.4664 4.70529
upperback 0.142407 5.48095 2.58263
thorax -6.69206 2.57133 -0.894114
lowerneck -3.24572 -16.302 -20.0903
upperneck 8.41868 -23.815 23.2356
head 8.53736 -11.2764 7.94496
rclavicle -3.66261e-014 -3.77691e-014
rhumerus 379.119 345.448 663.285
rradius 55.4341
rwrist -31.6588
rhand -27.7728 6.89231
rfingers 7.12502
rthumb -1.16651 -23.0843
lclavicle -3.66261e-014 -3.77691e-014
lhumerus -37.2804 19.6403 65.237
lradius 41.6755
lwrist 0.549817
lhand -17.0844 10.9102
lfingers 7.12502
lthumb 9.15388 40.6915
rfemur -1.45797 -7.07334 26.2808
rtibia 40.3474
rfoot -23.6802 -20.647
rtoes -17.9387
lfemur -29.461 -7.39137 1.8868
ltibia 34.5653
lfoot -1.66292 -3.73669
ltoes -6.40746
1176
root -1.78111 16.9089 4.52007 -3.2239 11.6887 -11.0023
lowerback 12.5613 3.47829 5.06863
upperback 0.0832984 5.55457 2.59367
thorax -6.73464 2.59297 -1.0992
lowerneck -3.78637 -16.1528 -19.9748
upperneck 8.78265 -23.5283 22.8896
head 8.61736 -11.103 7.83533
rclavicle -1.42628e-014 6.36111e-015
rhumerus 379.09 346.5 662.453
rradius 57.2258
rwrist -31.514
rhand -27.8046 7.59886
rfingers 7.12502
rthumb -1.19722 -22.3775
lclavicle -1.42628e-014 6.36111e-015
lhumerus -37.1335 19.8882 65.2786
lradius 41.3775
lwrist 0.378688
lhand -17.3628 11.0375
lfingers 7.12502
lthumb 8.88528 40.8305
rfemur -1.28945 -6.29734 26.6469
rtibia 39.3855
rfoot -24.174 -20.6517
rtoes -17.1731
lfemur -29.3248 -7.47727 2.44681
ltibia 34.4214
lfoot -1.26981 -2.81936
ltoes -5.29806
